
Open SVG
Paste markup
Demo
Contribute
About
Powered by the incredible SVGO


14.39k → 9.67k 67.24%
<svg xmlns="http://www.w3.org/2000/svg" fill="none" viewBox="0 0 1200 276">
  <g clip-path="url(#clip0)">
    <mask id="a" width="240" height="240" x="318" y="29" maskUnits="userSpaceOnUse">
      <path fill="#fff" d="M438 269c66.274 0 120-53.726 120-120S504.274 29 438 29 318 82.726 318 149s53.726 120 120 120z"/>
    </mask>
    <g mask="url(#a)">
      <path fill="#E6E6E6" d="M438 269c66.274 0 120-53.726 120-120S504.274 29 438 29 318 82.726 318 149s53.726 120 120 120z"/>
      <path fill="#7ED6DF" d="M558 29H318v240h240V29z"/>
    </g>
    <mask id="b" width="264" height="280" x="306" y="-11" maskUnits="userSpaceOnUse">
      <path fill="#fff" d="M318 149c0 66.274 53.726 120 120 120s120-53.726 120-120h12V-11H306v160h12z"/>
    </mask>
    <g mask="url(#b)">
      <mask id="c" width="200" height="244" x="338" y="25" maskUnits="userSpaceOnUse">
        <path fill="#fff" d="M462 169.611V188h4c39.764 0 72 32.236 72 72v9H338v-9c0-39.764 32.235-72 72-72h4v-18.389c-17.237-8.189-29.628-24.924-31.695-44.73C376.48 124.058 372 119.052 372 113V99c0-5.946 4.325-10.882 10-11.834V81c0-30.928 25.072-56 56-56s56 25.072 56 56v6.166c5.675.952 10 5.888 10 11.834v14c0 6.052-4.48 11.058-10.305 11.881-2.067 19.806-14.458 36.541-31.695 44.73z"/>
      </mask>
      <g mask="url(#c)">
        <path fill="#D0C6AC" d="M462 169.611V188h4c39.764 0 72 32.236 72 72v9H338v-9c0-39.764 32.235-72 72-72h4v-18.389c-17.237-8.189-29.628-24.924-31.695-44.73C376.48 124.058 372 119.052 372 113V99c0-5.946 4.325-10.882 10-11.834V81c0-30.928 25.072-56 56-56s56 25.072 56 56v6.166c5.675.952 10 5.888 10 11.834v14c0 6.052-4.48 11.058-10.305 11.881-2.067 19.806-14.458 36.541-31.695 44.73z"/>
        <path fill="#CD8451" d="M570 25H306v244h264V25z"/>
        <path fill="#000" fill-opacity=".1" fill-rule="evenodd" d="M494 104v23c0 30.928-25.072 56-56 56s-56-25.072-56-56v-23 15c0 30.928 25.072 56 56 56s56-25.072 56-56v-15z" clip-rule="evenodd"/>
      </g>
      <mask id="d" width="200" height="81" x="338" y="188" maskUnits="userSpaceOnUse">
        <path fill="#fff" fill-rule="evenodd" d="M411.192 188.052H410c-39.765 0-72 32.235-72 72V269h200v-8.948c0-39.765-32.236-72-72-72h-1.192c.127.983.192 1.984.192 3 0 13.807-12.088 25-27 25s-27-11.193-27-25c0-1.016.065-2.017.192-3z" clip-rule="evenodd"/>
      </mask>
      <g mask="url(#d)">
        <path fill="#E6E6E6" fill-rule="evenodd" d="M411.192 188.052H410c-39.765 0-72 32.235-72 72V269h200v-8.948c0-39.765-32.236-72-72-72h-1.192c.127.983.192 1.984.192 3 0 13.807-12.088 25-27 25s-27-11.193-27-25c0-1.016.065-2.017.192-3z" clip-rule="evenodd"/>
        <path fill="#262E33" d="M570 159H306v110h264V159z"/>
        <path fill="#3A4C5A" fill-rule="evenodd" d="M406.785 188.122C368.512 189.804 338 221.365 338 260.052V269h69.362c-3.401-12.08-5.362-26.291-5.362-41.5 0-14.327 1.74-27.769 4.785-39.378zM469.638 269H538v-8.948c0-38.345-29.975-69.689-67.771-71.878 3.036 11.597 4.771 25.02 4.771 39.326 0 15.209-1.961 29.42-5.362 41.5z" clip-rule="evenodd"/>
        <path fill="#E6E6E6" fill-rule="evenodd" d="M487 245l9.556-7.167a4 4 0 014.856.043L508 243l-21 2z" clip-rule="evenodd"/>
        <path fill="#2F4351" fill-rule="evenodd" d="M407 187c-4 19.333-2.333 46.667 5 82h-16l-14-36 6-9-6-6 19-30c2.028-.631 4.028-.964 6-1zM469 187c4 19.333 2.333 46.667-5 82h16l14-36-6-9 6-6-19-30c-2.028-.631-4.028-.964-6-1z" clip-rule="evenodd"/>
        <path fill="#F2F2F2" fill-rule="evenodd" d="M462 180.539c6.772 4.597 11 11.117 11 18.349 0 7.401-4.428 14.057-11.48 18.669l-5.941-4.68-4.579.331 1-3.151-.078-.061c6.1-3.143 10.078-8.296 10.078-14.119v-15.338zm-48 0c-6.772 4.597-11 11.117-11 18.349 0 7.401 4.428 14.057 11.48 18.669l5.941-4.68 4.579.331-1-3.151.078-.061c-6.1-3.143-10.078-8.296-10.078-14.119v-15.338z" clip-rule="evenodd"/>
      </g>
      <mask id="e" width="38" height="19" x="419" y="136" maskUnits="userSpaceOnUse">
        <path fill="#fff" fill-rule="evenodd" d="M419.118 138.128C420.176 147.62 428.226 155 438 155c9.804 0 17.874-7.426 18.892-16.96.082-.767-.775-2.04-1.849-2.04h-33.956c-1.08 0-2.075 1.178-1.969 2.128z" clip-rule="evenodd"/>
      </mask>
      <g mask="url(#e)">
        <path fill="#000" fill-opacity=".7" fill-rule="evenodd" d="M419.118 138.128C420.176 147.62 428.226 155 438 155c9.804 0 17.874-7.426 18.892-16.96.082-.767-.775-2.04-1.849-2.04h-33.956c-1.08 0-2.075 1.178-1.969 2.128z" clip-rule="evenodd"/>
        <path fill="#fff" d="M449 125h-21a5 5 0 00-5 5v6a5 5 0 005 5h21a5 5 0 005-5v-6a5 5 0 00-5-5z"/>
        <path fill="#FF4F6D" d="M433 169c6.075 0 11-4.925 11-11s-4.925-11-11-11-11 4.925-11 11 4.925 11 11 11z"/>
        <path fill="#FF4F6D" d="M443 169c6.075 0 11-4.925 11-11s-4.925-11-11-11-11 4.925-11 11 4.925 11 11 11z"/>
      </g>
      <path fill="#000" fill-opacity=".16" fill-rule="evenodd" d="M426 119c0 4.418 5.373 8 12 8s12-3.582 12-8" clip-rule="evenodd"/>
      <path fill="#000" fill-opacity=".6" fill-rule="evenodd" d="M398.16 101.447c1.847-3.799 6.004-6.447 10.838-6.447 4.816 0 8.961 2.63 10.817 6.407.552 1.122-.233 2.04-1.024 1.36-2.451-2.107-5.932-3.423-9.793-3.423-3.741 0-7.124 1.235-9.56 3.228-.891.728-1.818-.014-1.278-1.125zM456.16 101.447c1.847-3.799 6.004-6.447 10.838-6.447 4.816 0 8.961 2.63 10.817 6.407.552 1.122-.233 2.04-1.024 1.36-2.451-2.107-5.932-3.423-9.793-3.423-3.741 0-7.124 1.235-9.56 3.228-.891.728-1.818-.014-1.278-1.125zM408.547 77.148c-5.807.269-15.195 4.488-14.953 10.344.008.192.29.276.427.129 2.755-2.96 22.316-5.95 29.205-4.365.631.145 1.11-.477.71-.927-3.422-3.848-10.186-5.426-15.389-5.18zM468.453 77.148c5.807.269 15.195 4.488 14.953 10.344-.008.192-.29.276-.427.129-2.755-2.96-22.315-5.95-29.205-4.365-.631.145-1.11-.477-.71-.927 3.422-3.848 10.186-5.426 15.389-5.18z" clip-rule="evenodd"/>
      <mask id="f" width="264" height="280" x="306" y="-11" maskUnits="userSpaceOnUse">
        <path fill="#fff" d="M570-11H306v280h264V-11z"/>
      </mask>
      <g mask="url(#f)">
        <path fill="#2C1B18" fill-opacity=".16" d="M381.587 54.36c5.799-9.033 14.515-16.888 24.313-22.895l28.712-8.24c28.963-.902 50.806 26.658 54.174 30.752 3.263 3.967 15.15 34.99 13.417 34.453-.487-.151-1.63-1.994-1.742-2.35-.376-1.19-.205-1.341-1.361-2.378-1.04-.934-2.075-1.85-3.182-2.726l-4.418-1.688C488.167 73.692 481.2 62 480 60c-1.5-2.5-6.5-9-7.5-10.5s-3.5-4.5-6.5-3-30 14-39 18.5-29.5 15.976-40 23.43c-8.4 5.963-10.5 8.198-10.5 8.57l-5.276-17.365c.325-.54.129-.65-.388-.347-.847-1.543.053-3.129.64-4.599.929-2.329 1.898-4.644 2.96-6.931 2.117-4.558 4.389-9.095 7.151-13.398z"/>
        <mask id="g" width="215" height="263" x="331" y="5" maskUnits="userSpaceOnUse">
          <path fill="#fff" fill-rule="evenodd" d="M493.5 82.5c.385 1.932.49 25.5.49 21.5l.01 15c0 22.339-13.08 41.623-32 50.611V188h4c1.324 0 1.885.036 2.993.106l.546.035c-14.913 27.355-18.715 50.433-1.067 64.402 1.698 1.203 2.924 1.786 3.135 1.885l.578.273c2.195 1.039 4.472 2.117 6.889 2.682 3.52.822 7.437.177 11.147-.435 1.164-.191 2.306-.38 3.41-.518 2.112-.266 4.217-.429 6.346-.436 2.565-.009 5.211.084 7.142 1.697 1.884 1.574 1.644 7.198-3.875 9.833 4.099 1.855 9.012-2.453 10.688-5.177 1.466-2.385 2.594-4.968 3.214-7.605.772-3.283.822-6.725.218-10.014-.81-4.41-2.309-8.712-3.804-13.002-.827-2.371-1.652-4.739-2.359-7.12-.172-.581-.357-1.175-.544-1.776-.608-1.952-1.24-3.984-1.558-5.913-.113-.685-.247-3.216-.141-3.745l.015-.08c.067-.368.135-.742 1.4-1.096 3.916-1.096 8.007-2.933 10.852-5.519 3.365-3.059 5.119-7.032 6.533-10.98 2.241-6.252 3.523-12.947 4.113-19.44.122-1.349.191-2.695.215-4.047.006-.301-.005-.617-.015-.937-.018-.55-.036-1.111.023-1.628.073-.634.064-.889.173-1.075.122-.208.389-.332 1.075-.799 4.257-2.9 7.579-7.122 9.71-11.37 3.346-6.672 3.782-13.708 1.066-20.467-2.253-5.607-5.827-11.235-11.392-14.846-1.705-1.106-3.484-2.13-5.261-3.151l-1.35-.779c-.444-.257-1.109-.544-1.814-.848-1.214-.523-2.549-1.099-3.091-1.669-.435-.456-.054-2.24.235-3.594.111-.516.207-.97.241-1.264.528-4.648-.08-9.157-1.165-13.696-1.509-6.309-5.898-15.055-9.905-23.042-2.349-4.683-4.568-9.104-5.998-12.62-.407-1.001-.837-2.587-1.382-4.6-3.904-14.41-13.725-50.666-63.649-50.426-45.915.221-61.467 32.803-69.807 50.279-1.995 4.179-3.577 7.494-5.064 9.296-8.365 10.138-16.809 29.402-11.113 47.262-1.642 2.064-3.911 4.411-6.37 6.954-5.787 5.984-12.631 13.061-14.848 20.136-1.982 6.325-1.897 13.37.644 19.507 1.437 3.471 3.496 6.617 5.911 9.639.928 1.161 1.901 2.293 2.874 3.426 1.246 1.452 2.493 2.903 3.644 4.412l.052.068c1.194 1.566 1.51 1.98 1.05 3.95-.75 3.217-2.154 6.329-3.54 9.404-.312.692-.623 1.382-.926 2.071-2.552 5.81-4.697 11.219-5.014 17.413-.302 5.896 1.324 22.673 18.261 32.56a62.829 62.829 0 006.042 3.109c-1.09-3.395.146-15.523 2.343-20.031.56 1.551 1.511 3.043 2.536 4.398l.216.288c1.707 2.27 5.362 7.131 9.931 7.367a52.225 52.225 0 00-1.418-2.045c-1.446-2.014-2.749-3.83-3.206-6.553 3.977 1.96 9.634 3.747 14.262 3.582 3.404-.12 8.424-1.82 10.953-3.943-8.372 1.327-16.321-1.432-19.518-7.329-.667-1.231-1.174-2.52-1.468-3.86-.417-1.9-1.076-4.944-.191-6.697.215-.426.566-.861.984-1.289l-.197-.236c5.694-4.787 12.839-12.404 16.665-17.969l.211-.368h.039l.085-.126A72.2 72.2 0 01410 188h4v-18.389C397 159 385.5 138.5 384 133c-1.5-5.5-2-9-2.5-13.5s-.5-8-.5-13.5 0-13.5 1-16 24-18.5 35.5-24 47-23 50-22 13.5 16 18 22.5 7.615 14.068 8 16z" clip-rule="evenodd"/>
        </mask>
        <g mask="url(#g)">
          <path fill="#331808" fill-rule="evenodd" d="M493.946 76.92a56.73 56.73 0 01.169 4.381v38c0 22.339-13.081 41.623-32 50.611v18.389h4c1.524 0 2.037.047 3.538.141-14.913 27.355-18.715 50.433-1.066 64.402 1.698 1.203 2.924 1.786 3.135 1.885 2.373 1.118 4.837 2.34 7.467 2.955 4.623 1.08 9.933-.373 14.556-.953 2.112-.266 4.217-.429 6.347-.436 2.565-.009 5.211.084 7.142 1.697 1.884 1.574 1.644 7.198-3.875 9.833 4.099 1.855 9.012-2.453 10.687-5.177 1.467-2.385 2.595-4.968 3.215-7.605.772-3.283.821-6.725.217-10.014-1.257-6.848-4.176-13.432-6.162-20.122-.733-2.466-1.686-5.165-2.102-7.689-.113-.685-.247-3.216-.142-3.745.079-.393.059-.796 1.416-1.176 3.915-1.096 8.006-2.933 10.852-5.519 3.365-3.059 5.119-7.032 6.533-10.98 2.24-6.252 3.523-12.947 4.112-19.44a55.31 55.31 0 00.216-4.047c.015-.817-.085-1.747.008-2.565.153-1.34-.054-.987 1.247-1.874 4.258-2.899 7.58-7.122 9.711-11.37 3.346-6.672 3.782-13.708 1.065-20.467-2.253-5.607-5.826-11.235-11.392-14.846-2.136-1.386-4.391-2.643-6.61-3.93-1.208-.7-4.048-1.615-4.906-2.517-.6-.63.356-3.792.477-4.858.528-4.648-.08-9.157-1.166-13.696-2.393-10.008-12.032-26.149-15.902-35.662-3.325-8.172-8.136-55.3-65.032-55.026-56.895.274-67.168 50.239-74.87 59.575-8.365 10.138-16.809 29.402-11.114 47.262-5.503 6.922-18.057 17.008-21.217 27.09-1.982 6.325-1.897 13.37.644 19.507 1.437 3.471 3.496 6.618 5.911 9.639 2.116 2.647 4.468 5.152 6.518 7.838 1.236 1.622 1.568 2.019 1.102 4.018-.92 3.94-2.819 7.725-4.466 11.475-2.552 5.81-4.697 11.219-5.014 17.413-.303 5.896 1.324 22.673 18.261 32.56a62.829 62.829 0 006.042 3.109c-1.09-3.395.146-15.523 2.343-20.031.56 1.551 1.511 3.043 2.536 4.398 1.599 2.115 5.374 7.409 10.146 7.655-1.936-2.984-4.019-4.998-4.623-8.598 3.976 1.96 9.634 3.747 14.261 3.582 3.405-.12 8.425-1.82 10.954-3.943-8.372 1.327-16.321-1.432-19.518-7.329-.668-1.231-1.174-2.52-1.468-3.86-.418-1.9-1.076-4.944-.192-6.697.215-.426.567-.861.984-1.289a40.779 40.779 0 01-.196-.236c5.693-4.786 12.839-12.404 16.665-17.969.071-.122.141-.245.21-.368h.04l.085-.126a72.193 72.193 0 0116.39-1.874h4v-18.389c-18.92-8.988-32-28.272-32-50.611v-38c0-2.463.159-4.888.467-7.267 3.942-1.263 7.898-2.455 11.931-3.528 4.457-1.186 14.4-3.114 18.291-4.01l2.736-2.98 1.062 1.955c2.158-.166 14.079-1.957 14.079-1.957l1.33-3.223c1.716 1.763 2.939 2.679 2.939 2.679 2.556-.209 13.653-.458 16.285-.426 0 0 7.34.258 9.12.328l1.667-.638.549 1.077c1.454.591 10.243 3.59 11.978 4.128l2.547-.906c1.119 2.694 3.939 2.354 6.276 4.481 2.503 2.279 7.226 4.024 10.574 5.905z" clip-rule="evenodd"/>
          <path fill="#20110E" d="M595 5H331v280h264V5z"/>
          <path fill="#000" fill-opacity=".24" fill-rule="evenodd" d="M393.679 189.462c7.076-9.707-.53-36.675-6.551-46.661 16.837-7.663 50.086-6.247 99.746 4.247-4.795 8.852-6.751 16.756-5.868 23.709-4.537 5.576-8.286 11.37-11.246 17.385l-34.871 8.605c-22.036 2.653-35.773.225-41.21-7.285z" clip-rule="evenodd"/>
        </g>
        <path fill="#491D13" fill-rule="evenodd" d="M384.04 159.094c-.059-.201-.205-.427-.405-.665.136.221.272.442.405.665zm-22.63-49.719a88.61 88.61 0 004.456 18.003c2.062 5.721 4.42 11.458 7.813 16.69 3.161 4.875 6.924 9.424 9.956 14.361-.797-.948-2.472-2.099-3.114-2.778a50.006 50.006 0 01-2.984-3.457c-1.923-2.444-3.637-5-5.293-7.584-3.253-5.073-5.691-10.576-7.804-16.079-4.15-10.808-8.313-23.914-4.666-35.33-.282.734.459 2.487.575 3.296.204 1.414.386 2.837.478 4.26.185 2.883.184 5.749.583 8.618zm12.445 44.666c-1.358-1.731-3.881-3.097-5.442-4.762-1.415-1.509-2.511-3.201-3.506-4.939-2.255-3.941-3.737-7.965-4.217-12.371.109.523.918 1.427 1.173 1.856a84.323 84.323 0 011.788 3.124c1.097 2.041 2.013 4.151 3.122 6.187 2.038 3.739 4.63 7.359 7.082 10.905zm4.677 18.458c1.115 1.962 2.04 3.966 2.625 6.102.309 1.127.557 2.269.77 3.413.069.369.082 1.696.258 2.27-2.215-4.291-3.905-8.835-6.543-12.942-2.604-4.054-5.947-7.781-9.446-11.281-3.695-3.695-7.41-7.182-9.392-11.847-1.725-4.06-2.391-8.218-1.99-12.556.002 1.911 1.757 4.622 2.363 6.469.829 2.527 1.489 5.105 2.737 7.507 2.126 4.089 5.959 7.243 9.165 10.688 3.553 3.816 6.946 7.762 9.453 12.177zm-14.303-9.32a22.112 22.112 0 012.806 3.275c.898 1.285 1.556 2.636 2.145 4.05.507 1.217.731 3.482 1.527 4.498-2.578-3.146-5.233-6.117-7.011-9.69-.607-1.222-1.548-3.023-2.243-4.495.231.593 2.253 1.86 2.776 2.362zm-10.326 6.349c2.838 4.25 6.548 8.081 8.974 12.528 2.83 5.187 4.075 10.807 4.326 16.54.119 2.711.112 5.465-.253 8.168-.196 1.448-.51 2.886-.869 4.312-.136.541-.84 1.926-.977 2.771-.29-10.541 1.454-21.083-4.027-30.904-2.596-4.651-6.586-8.616-9.679-13.018-2.781-3.959-5.498-7.841-7.713-12.074 1.356 1.716 3.8 3.065 5.316 4.769 1.899 2.134 3.348 4.58 4.902 6.908zm11.201 44.319c-.033.204-.034.377.013.5l-.013-.5zm-9.544-22.353c.001.496.816 1.518 1.039 2.035.522 1.209.947 2.479 1.158 3.761.418 2.528-.13 5.14-1.067 7.56-1.899 4.907-4.874 9.253-8.613 13.3 1.335-1.748 1.867-4.589 2.806-6.538.965-2.001 2-3.971 2.851-6.011 1.919-4.605 1.75-9.311 1.826-14.107zm-8.643 18.707c.401-.548.193-3.183.405-3.872.392-1.273 1.07-2.502 1.849-3.635-.416.699.198 2.466-.005 3.373-.332 1.489-1.17 2.932-2.249 4.134zm57.691-178.453a.932.932 0 00-.24.297l.24-.297zm-14.761 21.584c1.42-1.246 2.177-4.19 3.156-5.78 1.125-1.825 2.418-3.579 3.645-5.356 2.432-3.524 4.726-6.984 7.72-10.19-.622.934-1.173 3.768-1.514 4.513a34.645 34.645 0 01-3.221 5.605c-2.861 4.044-5.93 7.803-9.786 11.208zm-.535-10.21c.75-1.327 1.894-2.448 3.18-3.414-.573.503-.831 2.575-1.225 3.275-.795 1.412-1.953 2.63-3.196 3.772.664-.582.772-2.803 1.241-3.633zm119.194 98.006l-.041.311c-.002-1.526-.681-3.202-.761-4.77-.112-2.19.203-4.315 1.083-6.392 1.74-4.101 5.003-7.207 9.164-9.638-1.145.674-2.267 3.213-3.001 4.268-1.103 1.586-2.282 3.187-3.214 4.851-1.943 3.468-2.506 7.617-3.23 11.37zm-1.508-21.646a22.884 22.884 0 01-.989 3.626c-.474 1.279-1.093 2.523-1.783 3.728-.43.751-1.979 2.327-1.978 3.157-.083-4.898 1.728-9.335 5.172-13.257-.378.657-.283 2.03-.422 2.746zm-.801 35.238c3.656-.517 7.106 1.261 9.421 3.551 1.238 1.224 2.338 2.629 3.065 4.133.547 1.131.546 2.983 1.28 3.92-1.797-2.419-4.076-4.373-6.324-6.464-1.564-1.455-4.688-5.181-7.442-5.14zm-.778 10.377c-.192-.065-1.934-.558-2.337-.32.597-.267 1.33-.592 1.987-.679 4.284-.569 9.492 3.141 10.067 6.721-.478-1.226-3.025-2.24-4.176-2.85-1.823-.966-3.564-2.137-5.541-2.872zm1.809 7.811c.742.182 2.319 1.176 3.047 1.165-2.929.071-5.572-.255-8.391-.914.152.041 1.759-.456 1.811-.463 1.215-.172 2.357-.075 3.533.212zm-11.345 13.857c4.288-.242 9.336.384 13.431 1.417a22.3 22.3 0 015.692 2.295c1.414.814 3.93 1.932 4.876 3.137-3.739-6.452-11.85-9.803-20.159-8.141-1.108.223-2.809 1.277-3.84 1.292zm-.96 12.433c2.688-.965 5.662-1.894 8.583-2.029 2.771-.127 5.845.29 8.41 1.173-.883-.24-2.993.332-3.92.437-1.297.147-2.596.299-3.896.418a51.678 51.678 0 01-4.801.222c-1.139-.002-3.32-.54-4.376-.221zm-10.464 17.213c.253 3.973 2.552 7.434 5.931 10.08 3.583 2.805 8.379 4.082 10.98 7.829 1.267 1.825 1.943 3.951 1.834 6.098-.056 1.106-.334 2.218-.634 3.294-.198.708-.903 1.868-.902 2.559.031-3.887.084-8.412-2.636-11.673-2.731-3.274-7.493-4.427-10.829-7.115-3.278-2.642-5.765-6.094-6.325-9.985-.452-3.144-.229-8.626 3.03-10.759-.662.389-.531 2.373-.547 2.93a73.946 73.946 0 00.098 6.742zm-2.453 15.262c.396.52 2.569 1.151 3.208 1.51 1.456.817 2.865 1.746 4.021 2.877 2.316 2.266 3.809 5.445 3.917 8.494 0-.721-1.646-2.457-2.109-3.073-.768-1.022-1.635-1.969-2.518-2.917-2.154-2.31-4.39-4.564-6.519-6.891zm52.162-88.882c1.204 1.051 2.011 2.357 2.675 3.709 1.53 3.119 1.815 6.717.589 10 .203-.704-.401-2.184-.571-2.898-.373-1.563-.955-3.04-1.563-4.542-1.18-2.916-2.134-5.648-4.184-8.202.53.668 2.328 1.3 3.054 1.933zM476.51 30.983c0 .332.917 1.293 1.123 1.654.517.902.924 1.849 1.064 2.855.158 1.142-.035 2.259-.381 3.369-.206.66-1.184 1.934-1.184 2.529-.159-3.499-.933-6.86-.622-10.407zm7.637 6.822c.165 1.243-.241 2.644-.964 3.742.132-.31-.454-2.383-.473-2.762-.059-1.173.069-2.38.146-3.552.001.64 1.183 1.763 1.291 2.572zm-60.77 1.568a34.94 34.94 0 01-4.15 4.244c-1.023.89-2.984 1.889-3.764 2.91 3.501-5.712 7.546-10.64 12.302-15.632-.716.92-.903 2.917-1.428 3.994-.774 1.587-1.809 3.076-2.96 4.484zm5.898 2.479c.57-.336 1.104-1.993 1.538-2.55a16.958 16.958 0 012.578-2.63c-.205.22-.602 2.044-.825 2.402-.723 1.16-2 2.107-3.291 2.778z" clip-rule="evenodd"/>
      </g>
    </g>
    <path fill="#524E7A" d="M628.095 103.081c4.196 0 7.303 1.049 9.319 3.148 2.057 2.057 3.085 5.204 3.085 9.442v15.058c0 1.111-.329 1.996-.987 2.654-.658.617-1.563.926-2.715.926-1.07 0-1.955-.33-2.654-.988-.658-.658-.988-1.522-.988-2.592v-1.358c-.699 1.605-1.81 2.86-3.332 3.765-1.481.905-3.209 1.358-5.184 1.358-2.016 0-3.847-.412-5.493-1.235-1.645-.822-2.941-1.954-3.888-3.394-.946-1.44-1.419-3.044-1.419-4.814 0-2.221.555-3.97 1.666-5.245 1.152-1.276 3.004-2.201 5.554-2.777 2.551-.576 6.069-.864 10.554-.864h1.542v-1.42c0-2.016-.432-3.476-1.296-4.382-.864-.946-2.262-1.419-4.196-1.419-1.193 0-2.407.185-3.641.555-1.235.33-2.695.823-4.382 1.482-1.07.534-1.851.802-2.345.802-.741 0-1.358-.268-1.852-.802-.452-.535-.678-1.235-.678-2.099 0-.699.164-1.296.493-1.789.371-.535.967-1.029 1.79-1.482 1.44-.781 3.147-1.398 5.122-1.851a26.976 26.976 0 015.925-.679zm-1.913 25.858c2.057 0 3.723-.678 4.999-2.036 1.316-1.399 1.974-3.189 1.974-5.369v-1.296h-1.11c-2.757 0-4.896.123-6.419.37-1.522.247-2.612.679-3.271 1.296-.658.617-.987 1.461-.987 2.53 0 1.317.453 2.407 1.358 3.271.946.823 2.098 1.234 3.456 1.234zM673.519 90.183c1.152 0 2.098.329 2.839.987.74.659 1.111 1.523 1.111 2.592v36.905c0 1.111-.35 1.996-1.049 2.654-.7.658-1.626.988-2.778.988-1.152 0-2.077-.33-2.777-.988-.699-.658-1.049-1.543-1.049-2.654v-1.542c-.905 1.686-2.222 3.003-3.95 3.949-1.686.947-3.62 1.42-5.801 1.42-2.592 0-4.916-.659-6.973-1.975-2.016-1.317-3.6-3.168-4.752-5.554-1.111-2.428-1.667-5.205-1.667-8.332 0-3.127.556-5.863 1.667-8.208 1.152-2.345 2.736-4.155 4.752-5.431 2.016-1.275 4.34-1.913 6.973-1.913 2.181 0 4.115.453 5.801 1.358 1.687.905 2.983 2.18 3.888 3.826V93.639c0-1.029.33-1.852.988-2.469.699-.658 1.625-.987 2.777-.987zm-11.417 38.324c2.468 0 4.361-.843 5.678-2.53 1.357-1.687 2.036-4.094 2.036-7.22 0-3.127-.679-5.514-2.036-7.159-1.317-1.687-3.189-2.531-5.616-2.531-2.469 0-4.382.823-5.74 2.469-1.358 1.646-2.036 4.011-2.036 7.097 0 3.127.678 5.554 2.036 7.282 1.358 1.728 3.25 2.592 5.678 2.592zM689.231 134.37c-1.111 0-2.037-.308-2.778-.925-.699-.659-1.049-1.584-1.049-2.778v-23.821c0-1.193.35-2.099 1.049-2.716.741-.617 1.667-.925 2.778-.925 1.11 0 2.036.308 2.777.925.74.617 1.111 1.523 1.111 2.716v23.821c0 1.194-.371 2.119-1.111 2.778-.741.617-1.667.925-2.777.925zm0-36.658c-1.399 0-2.51-.37-3.333-1.11-.823-.782-1.234-1.79-1.234-3.025 0-1.234.411-2.221 1.234-2.962.823-.74 1.934-1.111 3.333-1.111 1.357 0 2.448.37 3.27 1.11.864.742 1.296 1.729 1.296 2.963s-.411 2.243-1.234 3.024c-.823.74-1.934 1.111-3.332 1.111zM716.749 128.631c2.058.123 3.086 1.049 3.086 2.777 0 .987-.411 1.749-1.234 2.283-.782.494-1.913.7-3.394.618l-1.667-.124c-6.912-.494-10.368-4.196-10.368-11.108v-13.454h-3.085c-1.111 0-1.975-.247-2.592-.741-.576-.493-.864-1.213-.864-2.16 0-.946.288-1.666.864-2.16.617-.493 1.481-.74 2.592-.74h3.085v-5.678c0-1.11.35-1.995 1.049-2.654.7-.658 1.646-.987 2.839-.987 1.152 0 2.078.329 2.777.987.7.659 1.05 1.543 1.05 2.654v5.678h5.245c1.111 0 1.955.247 2.531.74.617.494.925 1.214.925 2.16 0 .947-.308 1.667-.925 2.16-.576.494-1.42.741-2.531.741h-5.245v14.009c0 3.045 1.398 4.67 4.196 4.875l1.666.124zM727.681 134.37c-1.11 0-2.036-.308-2.777-.925-.699-.659-1.049-1.584-1.049-2.778v-23.821c0-1.193.35-2.099 1.049-2.716.741-.617 1.667-.925 2.777-.925 1.111 0 2.037.308 2.778.925.74.617 1.11 1.523 1.11 2.716v23.821c0 1.194-.37 2.119-1.11 2.778-.741.617-1.667.925-2.778.925zm0-36.658c-1.398 0-2.509-.37-3.332-1.11-.823-.782-1.234-1.79-1.234-3.025 0-1.234.411-2.221 1.234-2.962.823-.74 1.934-1.111 3.332-1.111 1.358 0 2.448.37 3.271 1.11.864.742 1.296 1.729 1.296 2.963s-.411 2.243-1.234 3.024c-.823.74-1.934 1.111-3.333 1.111zM650.867 162.081c3.292 0 5.802.988 7.53 2.962 1.769 1.934 2.653 5.082 2.653 9.443v15.181c0 1.194-.37 2.119-1.111 2.778-.699.617-1.625.925-2.777.925-1.111 0-2.036-.308-2.777-.925-.699-.659-1.049-1.584-1.049-2.778v-15.181c0-2.263-.411-3.868-1.234-4.814-.782-.987-1.996-1.481-3.641-1.481-2.016 0-3.621.699-4.814 2.098-1.193 1.358-1.79 3.23-1.79 5.616v13.762c0 1.194-.37 2.119-1.111 2.778-.699.617-1.604.925-2.715.925-1.111 0-2.037-.308-2.777-.925-.741-.659-1.111-1.584-1.111-2.778v-15.181c0-2.263-.412-3.868-1.234-4.814-.782-.987-1.996-1.481-3.642-1.481-2.016 0-3.62.699-4.813 2.098-1.152 1.358-1.728 3.23-1.728 5.616v13.762c0 1.194-.371 2.119-1.111 2.778-.741.617-1.666.925-2.777.925-1.111 0-2.037-.308-2.777-.925-.7-.659-1.05-1.584-1.05-2.778v-23.883c0-1.152.371-2.037 1.111-2.654.741-.617 1.667-.925 2.777-.925 1.07 0 1.934.308 2.592.925.7.576 1.05 1.42 1.05 2.531v1.481c.946-1.646 2.201-2.901 3.764-3.765 1.605-.864 3.436-1.296 5.493-1.296 4.525 0 7.549 1.893 9.072 5.678.905-1.728 2.242-3.106 4.011-4.135 1.769-1.029 3.765-1.543 5.986-1.543zM682.653 193.494c-3.086 0-5.801-.638-8.146-1.913-2.304-1.276-4.094-3.107-5.369-5.493-1.276-2.386-1.913-5.163-1.913-8.331 0-3.168.637-5.925 1.913-8.27 1.275-2.386 3.065-4.217 5.369-5.493 2.345-1.275 5.06-1.913 8.146-1.913 3.086 0 5.781.638 8.085 1.913 2.345 1.276 4.135 3.107 5.369 5.493 1.275 2.345 1.913 5.102 1.913 8.27 0 3.168-.638 5.945-1.913 8.331-1.234 2.386-3.024 4.217-5.369 5.493-2.304 1.275-4.999 1.913-8.085 1.913zm-.062-5.987c2.51 0 4.423-.822 5.74-2.468 1.316-1.646 1.975-4.073 1.975-7.282 0-3.168-.659-5.575-1.975-7.221-1.317-1.687-3.209-2.53-5.678-2.53-2.468 0-4.382.843-5.739 2.53-1.317 1.646-1.975 4.053-1.975 7.221 0 3.209.658 5.636 1.975 7.282 1.316 1.646 3.209 2.468 5.677 2.468zM722.039 162.081c7.077 0 10.615 4.135 10.615 12.405v15.181c0 1.152-.35 2.058-1.049 2.716-.659.658-1.584.987-2.777.987-1.194 0-2.14-.329-2.839-.987-.7-.658-1.049-1.564-1.049-2.716v-15.181c0-2.181-.453-3.765-1.358-4.752-.864-1.029-2.242-1.543-4.135-1.543-2.222 0-4.011.699-5.369 2.098-1.317 1.399-1.975 3.271-1.975 5.616v13.762c0 1.152-.35 2.058-1.049 2.716-.7.658-1.646.987-2.839.987s-2.139-.329-2.839-.987c-.658-.658-.987-1.564-.987-2.716v-36.905c0-1.069.349-1.933 1.049-2.592.74-.658 1.687-.987 2.839-.987s2.077.308 2.777.926c.699.617 1.049 1.46 1.049 2.53v14.379c1.029-1.604 2.386-2.818 4.073-3.641 1.728-.864 3.682-1.296 5.863-1.296zM753.573 162.081c4.196 0 7.302 1.049 9.318 3.148 2.058 2.057 3.086 5.204 3.086 9.442v15.058c0 1.111-.329 1.996-.987 2.654-.659.617-1.564.926-2.716.926-1.069 0-1.954-.33-2.653-.988-.659-.658-.988-1.522-.988-2.592v-1.358c-.699 1.605-1.81 2.86-3.332 3.765-1.482.905-3.21 1.358-5.184 1.358-2.016 0-3.847-.412-5.493-1.235-1.646-.822-2.942-1.954-3.888-3.394-.946-1.44-1.419-3.044-1.419-4.814 0-2.221.555-3.97 1.666-5.245 1.152-1.276 3.003-2.201 5.554-2.777 2.551-.576 6.069-.864 10.553-.864h1.543v-1.42c0-2.016-.432-3.476-1.296-4.382-.864-.946-2.263-1.419-4.196-1.419-1.194 0-2.407.185-3.642.555-1.234.33-2.694.823-4.381 1.482-1.07.534-1.852.802-2.345.802-.741 0-1.358-.268-1.852-.802-.452-.535-.679-1.235-.679-2.099 0-.699.165-1.296.494-1.789.37-.535.967-1.029 1.79-1.482 1.44-.781 3.147-1.398 5.122-1.851a26.976 26.976 0 015.925-.679zm-1.914 25.858c2.058 0 3.724-.678 4.999-2.036 1.317-1.399 1.975-3.189 1.975-5.369v-1.296h-1.111c-2.756 0-4.896.123-6.418.37-1.522.247-2.613.679-3.271 1.296-.658.617-.987 1.461-.987 2.53 0 1.317.452 2.407 1.357 3.271.947.823 2.099 1.234 3.456 1.234zM791.344 162.081c3.621 0 6.316 1.029 8.085 3.086 1.769 2.057 2.653 5.163 2.653 9.319v15.181c0 1.152-.349 2.058-1.049 2.716-.658.658-1.584.987-2.777.987s-2.139-.329-2.839-.987c-.699-.658-1.049-1.564-1.049-2.716v-14.749c0-2.345-.452-4.053-1.358-5.123-.864-1.069-2.242-1.604-4.134-1.604-2.222 0-4.012.699-5.37 2.098-1.316 1.399-1.974 3.271-1.974 5.616v13.762c0 1.152-.35 2.058-1.05 2.716-.699.658-1.645.987-2.838.987-1.194 0-2.14-.329-2.839-.987-.659-.658-.988-1.564-.988-2.716v-23.883c0-1.07.35-1.934 1.049-2.592.7-.658 1.646-.987 2.839-.987 1.07 0 1.934.329 2.592.987.7.617 1.049 1.44 1.049 2.469v1.666a10.438 10.438 0 014.135-3.888c1.728-.905 3.683-1.358 5.863-1.358zM825.593 187.631c2.057.123 3.086 1.049 3.086 2.777 0 .987-.412 1.749-1.234 2.283-.782.494-1.914.7-3.395.618l-1.666-.124c-6.912-.494-10.368-4.196-10.368-11.108v-13.454h-3.086c-1.111 0-1.975-.247-2.592-.741-.576-.493-.864-1.213-.864-2.16 0-.946.288-1.666.864-2.16.617-.493 1.481-.74 2.592-.74h3.086v-5.678c0-1.111.35-1.995 1.049-2.654.7-.658 1.646-.987 2.839-.987 1.152 0 2.078.329 2.777.987.7.659 1.049 1.543 1.049 2.654v5.678h5.246c1.111 0 1.954.247 2.53.74.617.494.926 1.214.926 2.16 0 .947-.309 1.667-.926 2.16-.576.494-1.419.741-2.53.741h-5.246v14.009c0 3.045 1.399 4.67 4.197 4.875l1.666.124zM854.226 164.426c.329-.74.761-1.275 1.296-1.604a3.357 3.357 0 011.851-.556c.946 0 1.79.329 2.53.988.782.617 1.173 1.399 1.173 2.345 0 .452-.124.926-.37 1.419l-16.848 35.301c-.7 1.399-1.79 2.098-3.271 2.098-.946 0-1.79-.308-2.53-.926-.7-.576-1.05-1.316-1.05-2.221 0-.453.124-.967.371-1.543l4.196-8.825-11.479-23.884c-.205-.411-.308-.884-.308-1.419 0-.946.391-1.749 1.172-2.407.823-.658 1.749-.987 2.778-.987.699 0 1.337.185 1.913.555.576.329 1.028.864 1.357 1.605l8.64 19.069 8.579-19.008zM866.956 193.37c-1.316 0-2.407-.432-3.271-1.296-.864-.905-1.296-2.016-1.296-3.332 0-1.317.432-2.407 1.296-3.271.864-.905 1.955-1.358 3.271-1.358 1.317 0 2.407.453 3.271 1.358.864.864 1.296 1.954 1.296 3.271 0 1.316-.432 2.427-1.296 3.332-.864.864-1.954 1.296-3.271 1.296z"/>
  </g>
  <defs>
    <clipPath id="clip0">
      <path fill="#fff" d="M0 0h1200v276H0z"/>
    </clipPath>
  </defs>
</svg>
