<svg width="1200" height="276" viewBox="0 0 1200 276" fill="none" xmlns="http://www.w3.org/2000/svg">
<g clip-path="url(#clip0)">
<rect width="1200" height="276" fill="white"/>
<mask id="mask0" mask-type="alpha" maskUnits="userSpaceOnUse" x="318" y="29" width="240" height="240">
<path d="M438 269C504.274 269 558 215.274 558 149C558 82.7258 504.274 29 438 29C371.726 29 318 82.7258 318 149C318 215.274 371.726 269 438 269Z" fill="white"/>
</mask>
<g mask="url(#mask0)">
<path d="M438 269C504.274 269 558 215.274 558 149C558 82.7258 504.274 29 438 29C371.726 29 318 82.7258 318 149C318 215.274 371.726 269 438 269Z" fill="#E6E6E6"/>
<path d="M558 29H318V269H558V29Z" fill="#7ED6DF"/>
</g>
<mask id="mask1" mask-type="alpha" maskUnits="userSpaceOnUse" x="306" y="-11" width="264" height="280">
<path d="M318 149C318 215.274 371.726 269 438 269C504.274 269 558 215.274 558 149H570V-11H306V149H318Z" fill="white"/>
</mask>
<g mask="url(#mask1)">
<mask id="mask2" mask-type="alpha" maskUnits="userSpaceOnUse" x="338" y="25" width="200" height="244">
<path d="M462 169.611V188H466C505.764 188 538 220.236 538 260V269H338V260C338 220.236 370.235 188 410 188H414V169.611C396.763 161.422 384.372 144.687 382.305 124.881C376.48 124.058 372 119.052 372 113V99C372 93.054 376.325 88.1181 382 87.1659V81C382 50.0721 407.072 25 438 25C468.928 25 494 50.0721 494 81V87.1659C499.675 88.1181 504 93.054 504 99V113C504 119.052 499.52 124.058 493.695 124.881C491.628 144.687 479.237 161.422 462 169.611Z" fill="white"/>
</mask>
<g mask="url(#mask2)">
<path d="M462 169.611V188H466C505.764 188 538 220.236 538 260V269H338V260C338 220.236 370.235 188 410 188H414V169.611C396.763 161.422 384.372 144.687 382.305 124.881C376.48 124.058 372 119.052 372 113V99C372 93.054 376.325 88.1181 382 87.1659V81C382 50.0721 407.072 25 438 25C468.928 25 494 50.0721 494 81V87.1659C499.675 88.1181 504 93.054 504 99V113C504 119.052 499.52 124.058 493.695 124.881C491.628 144.687 479.237 161.422 462 169.611Z" fill="#D0C6AC"/>
<path d="M570 25H306V269H570V25Z" fill="#CD8451"/>
<path fill-rule="evenodd" clip-rule="evenodd" d="M494 104V127C494 157.928 468.928 183 438 183C407.072 183 382 157.928 382 127V104V119C382 149.928 407.072 175 438 175C468.928 175 494 149.928 494 119V104Z" fill="black" fill-opacity="0.1"/>
</g>
<mask id="mask3" mask-type="alpha" maskUnits="userSpaceOnUse" x="338" y="188" width="200" height="81">
<path fill-rule="evenodd" clip-rule="evenodd" d="M411.192 188.052H410C370.235 188.052 338 220.287 338 260.052V269H538V260.052C538 220.287 505.764 188.052 466 188.052H464.808C464.935 189.035 465 190.036 465 191.052C465 204.859 452.912 216.052 438 216.052C423.088 216.052 411 204.859 411 191.052C411 190.036 411.065 189.035 411.192 188.052Z" fill="white"/>
</mask>
<g mask="url(#mask3)">
<path fill-rule="evenodd" clip-rule="evenodd" d="M411.192 188.052H410C370.235 188.052 338 220.287 338 260.052V269H538V260.052C538 220.287 505.764 188.052 466 188.052H464.808C464.935 189.035 465 190.036 465 191.052C465 204.859 452.912 216.052 438 216.052C423.088 216.052 411 204.859 411 191.052C411 190.036 411.065 189.035 411.192 188.052Z" fill="#E6E6E6"/>
<path d="M570 159H306V269H570V159Z" fill="#262E33"/>
<path fill-rule="evenodd" clip-rule="evenodd" d="M406.785 188.122C368.512 189.804 338 221.365 338 260.052V269H407.362C403.961 256.92 402 242.709 402 227.5C402 213.173 403.74 199.731 406.785 188.122ZM469.638 269H538V260.052C538 221.707 508.025 190.363 470.229 188.174C473.265 199.771 475 213.194 475 227.5C475 242.709 473.039 256.92 469.638 269Z" fill="#3A4C5A"/>
<path fill-rule="evenodd" clip-rule="evenodd" d="M487 245L496.556 237.833C497.999 236.751 499.988 236.768 501.412 237.876L508 243L487 245Z" fill="#E6E6E6"/>
<path fill-rule="evenodd" clip-rule="evenodd" d="M407 187C403 206.333 404.667 233.667 412 269H396L382 233L388 224L382 218L401 188C403.028 187.369 405.028 187.036 407 187Z" fill="#2F4351"/>
<path fill-rule="evenodd" clip-rule="evenodd" d="M469 187C473 206.333 471.333 233.667 464 269H480L494 233L488 224L494 218L475 188C472.972 187.369 470.972 187.036 469 187Z" fill="#2F4351"/>
<path fill-rule="evenodd" clip-rule="evenodd" d="M462 180.539C468.772 185.136 473 191.656 473 198.888C473 206.289 468.572 212.945 461.52 217.557L455.579 212.877L451 213.208L452 210.057L451.922 209.996C458.022 206.853 462 201.7 462 195.877V180.539ZM414 180.539C407.228 185.136 403 191.656 403 198.888C403 206.289 407.428 212.945 414.48 217.557L420.421 212.877L425 213.208L424 210.057L424.078 209.996C417.978 206.853 414 201.7 414 195.877V180.539Z" fill="#F2F2F2"/>
</g>
<mask id="mask4" mask-type="alpha" maskUnits="userSpaceOnUse" x="419" y="136" width="38" height="19">
<path fill-rule="evenodd" clip-rule="evenodd" d="M419.118 138.128C420.176 147.62 428.226 155 438 155C447.804 155 455.874 147.574 456.892 138.04C456.974 137.273 456.117 136 455.043 136C440.149 136 428.738 136 421.087 136C420.007 136 419.012 137.178 419.118 138.128Z" fill="white"/>
</mask>
<g mask="url(#mask4)">
<path fill-rule="evenodd" clip-rule="evenodd" d="M419.118 138.128C420.176 147.62 428.226 155 438 155C447.804 155 455.874 147.574 456.892 138.04C456.974 137.273 456.117 136 455.043 136C440.149 136 428.738 136 421.087 136C420.007 136 419.012 137.178 419.118 138.128Z" fill="black" fill-opacity="0.7"/>
<path d="M449 125H428C425.239 125 423 127.239 423 130V136C423 138.761 425.239 141 428 141H449C451.761 141 454 138.761 454 136V130C454 127.239 451.761 125 449 125Z" fill="white"/>
<path d="M433 169C439.075 169 444 164.075 444 158C444 151.925 439.075 147 433 147C426.925 147 422 151.925 422 158C422 164.075 426.925 169 433 169Z" fill="#FF4F6D"/>
<path d="M443 169C449.075 169 454 164.075 454 158C454 151.925 449.075 147 443 147C436.925 147 432 151.925 432 158C432 164.075 436.925 169 443 169Z" fill="#FF4F6D"/>
</g>
<path fill-rule="evenodd" clip-rule="evenodd" d="M426 119C426 123.418 431.373 127 438 127C444.627 127 450 123.418 450 119" fill="black" fill-opacity="0.16"/>
<path fill-rule="evenodd" clip-rule="evenodd" d="M398.16 101.447C400.007 97.6485 404.164 95 408.998 95C413.814 95 417.959 97.6298 419.815 101.407C420.367 102.529 419.582 103.447 418.791 102.767C416.34 100.66 412.859 99.3438 408.998 99.3438C405.257 99.3438 401.874 100.579 399.438 102.572C398.547 103.3 397.62 102.558 398.16 101.447Z" fill="black" fill-opacity="0.6"/>
<path fill-rule="evenodd" clip-rule="evenodd" d="M456.16 101.447C458.007 97.6485 462.164 95 466.998 95C471.814 95 475.959 97.6298 477.815 101.407C478.367 102.529 477.582 103.447 476.791 102.767C474.34 100.66 470.859 99.3438 466.998 99.3438C463.257 99.3438 459.874 100.579 457.438 102.572C456.547 103.3 455.62 102.558 456.16 101.447Z" fill="black" fill-opacity="0.6"/>
<path fill-rule="evenodd" clip-rule="evenodd" d="M408.547 77.1484C402.74 77.4166 393.352 81.6362 393.594 87.4922C393.602 87.6838 393.884 87.768 394.021 87.6205C396.776 84.6612 416.337 81.6709 423.226 83.2555C423.857 83.4008 424.336 82.7787 423.936 82.3294C420.514 78.4811 413.75 76.903 408.547 77.1484Z" fill="black" fill-opacity="0.6"/>
<path fill-rule="evenodd" clip-rule="evenodd" d="M468.453 77.1484C474.26 77.4166 483.648 81.6362 483.406 87.4922C483.398 87.6838 483.116 87.768 482.979 87.6205C480.224 84.6612 460.664 81.6709 453.774 83.2555C453.143 83.4008 452.664 82.7787 453.064 82.3294C456.486 78.4811 463.25 76.903 468.453 77.1484Z" fill="black" fill-opacity="0.6"/>
<mask id="mask5" mask-type="alpha" maskUnits="userSpaceOnUse" x="306" y="-11" width="264" height="280">
<path d="M570 -11H306V269H570V-11Z" fill="white"/>
</mask>
<g mask="url(#mask5)">
<path d="M381.587 54.3603C387.386 45.3274 396.102 37.4722 405.9 31.4649L434.612 23.2255C463.575 22.3232 485.418 49.8831 488.786 53.9772C492.049 57.9436 503.936 88.9661 502.203 88.4297C501.716 88.2789 500.573 86.4362 500.461 86.0803C500.085 84.8905 500.256 84.7386 499.1 83.7016C498.06 82.7676 497.025 81.852 495.918 80.9757L491.5 79.2879C488.167 73.692 481.2 62.0001 480 60.0001C478.5 57.5001 473.5 51.0001 472.5 49.5001C471.5 48.0001 469 45.0001 466 46.5001C463 48.0001 436 60.5001 427 65.0001C418 69.5001 397.5 80.9757 387 88.4297C378.6 94.3929 376.5 96.6279 376.5 97.0001L371.224 79.6354C371.549 79.0945 371.353 78.9859 370.836 79.2879C369.989 77.745 370.889 76.1595 371.476 74.6894C372.405 72.3601 373.374 70.0448 374.436 67.7576C376.553 63.1996 378.825 58.6629 381.587 54.3603Z" fill="#2C1B18" fill-opacity="0.16"/>
<mask id="mask6" mask-type="alpha" maskUnits="userSpaceOnUse" x="331" y="5" width="215" height="263">
<path fill-rule="evenodd" clip-rule="evenodd" d="M493.5 82.5C493.885 84.4323 493.99 108 493.99 104L494 119C494 141.339 480.92 160.623 462 169.611V188H466C467.324 188 467.885 188.036 468.993 188.106C469.161 188.117 469.341 188.128 469.539 188.141C454.626 215.496 450.824 238.574 468.472 252.543C470.17 253.746 471.396 254.329 471.607 254.428C471.799 254.519 471.992 254.61 472.185 254.701C474.38 255.74 476.657 256.818 479.074 257.383C482.594 258.205 486.511 257.56 490.221 256.948C491.385 256.757 492.527 256.568 493.631 256.43C495.743 256.164 497.848 256.001 499.977 255.994C502.542 255.985 505.188 256.078 507.119 257.691C509.003 259.265 508.763 264.889 503.244 267.524C507.343 269.379 512.256 265.071 513.932 262.347C515.398 259.962 516.526 257.379 517.146 254.742C517.918 251.459 517.968 248.017 517.364 244.728C516.554 240.318 515.055 236.016 513.56 231.726C512.733 229.355 511.908 226.987 511.201 224.606C511.029 224.025 510.844 223.431 510.657 222.83C510.049 220.878 509.417 218.846 509.099 216.917C508.986 216.232 508.852 213.701 508.958 213.172C508.963 213.145 508.968 213.119 508.973 213.092C509.04 212.724 509.108 212.35 510.373 211.996C514.289 210.9 518.38 209.063 521.225 206.477C524.59 203.418 526.344 199.445 527.758 195.497C529.999 189.245 531.281 182.55 531.871 176.057C531.993 174.708 532.062 173.362 532.086 172.01C532.092 171.709 532.081 171.393 532.071 171.073C532.053 170.523 532.035 169.962 532.094 169.445C532.167 168.811 532.158 168.556 532.267 168.37C532.389 168.162 532.656 168.038 533.342 167.571C537.599 164.671 540.921 160.449 543.052 156.201C546.398 149.529 546.834 142.493 544.118 135.734C541.865 130.127 538.291 124.499 532.726 120.888C531.021 119.782 529.242 118.758 527.465 117.737C527.015 117.477 526.564 117.218 526.115 116.958C525.671 116.701 525.006 116.414 524.301 116.11C523.087 115.587 521.752 115.011 521.21 114.441C520.775 113.985 521.156 112.201 521.445 110.847C521.556 110.331 521.652 109.877 521.686 109.583C522.214 104.935 521.606 100.426 520.521 95.8868C519.012 89.578 514.623 80.8316 510.616 72.8447C508.267 68.1623 506.048 63.741 504.618 60.225C504.211 59.2237 503.781 57.6376 503.236 55.6255C499.332 41.2157 489.511 4.95853 439.587 5.19894C393.672 5.42005 378.12 38.0025 369.78 55.4776C367.785 59.6567 366.203 62.9719 364.716 64.7737C356.351 74.9121 347.907 94.1763 353.603 112.036C351.961 114.1 349.692 116.447 347.233 118.99C341.446 124.974 334.602 132.051 332.385 139.126C330.403 145.451 330.488 152.496 333.029 158.633C334.466 162.104 336.525 165.25 338.94 168.272C339.868 169.433 340.841 170.565 341.814 171.698C343.06 173.15 344.307 174.601 345.458 176.11L345.51 176.178C346.704 177.744 347.02 178.158 346.56 180.128C345.81 183.345 344.406 186.457 343.02 189.532C342.708 190.224 342.397 190.914 342.094 191.603C339.542 197.413 337.397 202.822 337.08 209.016C336.778 214.912 338.404 231.689 355.341 241.576C357.325 242.734 359.283 243.743 361.383 244.685C360.293 241.29 361.529 229.162 363.726 224.654C364.286 226.205 365.237 227.697 366.262 229.052C366.33 229.142 366.402 229.238 366.478 229.34C368.185 231.61 371.84 236.471 376.409 236.707C375.937 235.98 375.457 235.311 374.991 234.662C373.545 232.648 372.242 230.832 371.785 228.109C375.762 230.069 381.419 231.856 386.047 231.691C389.451 231.571 394.471 229.871 397 227.748C388.628 229.075 380.679 226.316 377.482 220.419C376.815 219.188 376.308 217.899 376.014 216.559C375.597 214.659 374.938 211.615 375.823 209.862C376.038 209.436 376.389 209.001 376.807 208.573C376.741 208.494 376.675 208.416 376.61 208.337C382.304 203.55 389.449 195.933 393.275 190.368C393.346 190.245 393.416 190.123 393.486 190H393.525L393.61 189.874C398.875 188.648 404.362 188 410 188H414V169.611C397 159 385.5 138.5 384 133C382.5 127.5 382 124 381.5 119.5C381 115 381 111.5 381 106C381 100.5 381 92.5 382 90C383 87.5 406 71.5 417.5 66C429 60.5 464.5 43 467.5 44C470.5 45 481 60 485.5 66.5C490 73 493.115 80.5677 493.5 82.5Z" fill="white"/>
</mask>
<g mask="url(#mask6)">
<path fill-rule="evenodd" clip-rule="evenodd" d="M493.946 76.9192C494.058 78.3651 494.115 79.8264 494.115 81.301V119.301C494.115 141.64 481.034 160.924 462.115 169.912V188.301H466.115C467.639 188.301 468.152 188.348 469.653 188.442C454.74 215.797 450.938 238.875 468.587 252.844C470.285 254.047 471.511 254.63 471.722 254.729C474.095 255.847 476.559 257.069 479.189 257.684C483.812 258.764 489.122 257.311 493.745 256.731C495.857 256.465 497.962 256.302 500.092 256.295C502.657 256.286 505.303 256.379 507.234 257.992C509.118 259.566 508.878 265.19 503.359 267.825C507.458 269.68 512.371 265.372 514.046 262.648C515.513 260.263 516.641 257.68 517.261 255.043C518.033 251.76 518.082 248.318 517.478 245.029C516.221 238.181 513.302 231.597 511.316 224.907C510.583 222.441 509.63 219.742 509.214 217.218C509.101 216.533 508.967 214.002 509.072 213.473C509.151 213.08 509.131 212.677 510.488 212.297C514.403 211.201 518.494 209.364 521.34 206.778C524.705 203.719 526.459 199.746 527.873 195.798C530.113 189.546 531.396 182.851 531.985 176.358C532.108 175.009 532.177 173.663 532.201 172.311C532.216 171.494 532.116 170.564 532.209 169.746C532.362 168.406 532.155 168.759 533.456 167.872C537.714 164.973 541.036 160.75 543.167 156.502C546.513 149.83 546.949 142.794 544.232 136.035C541.979 130.428 538.406 124.8 532.84 121.189C530.704 119.803 528.449 118.546 526.23 117.259C525.022 116.559 522.182 115.644 521.324 114.742C520.724 114.112 521.68 110.95 521.801 109.884C522.329 105.236 521.721 100.727 520.635 96.1879C518.242 86.1804 508.603 70.0393 504.733 60.526C501.408 52.3539 496.597 5.22598 439.701 5.49997C382.806 5.77396 372.533 55.7388 364.831 65.0747C356.466 75.2132 348.022 94.4773 353.717 112.337C348.214 119.259 335.66 129.345 332.5 139.427C330.518 145.752 330.603 152.797 333.144 158.934C334.581 162.405 336.64 165.552 339.055 168.573C341.171 171.22 343.523 173.725 345.573 176.411C346.809 178.033 347.141 178.43 346.675 180.429C345.755 184.369 343.856 188.154 342.209 191.904C339.657 197.714 337.512 203.123 337.195 209.317C336.892 215.213 338.519 231.99 355.456 241.877C357.44 243.035 359.398 244.044 361.498 244.986C360.408 241.591 361.644 229.463 363.841 224.955C364.401 226.506 365.352 227.998 366.377 229.353C367.976 231.468 371.751 236.762 376.523 237.008C374.587 234.024 372.504 232.01 371.9 228.41C375.876 230.37 381.534 232.157 386.161 231.992C389.566 231.872 394.586 230.172 397.115 228.049C388.743 229.376 380.794 226.617 377.597 220.72C376.929 219.489 376.423 218.2 376.129 216.86C375.711 214.96 375.053 211.916 375.937 210.163C376.152 209.737 376.504 209.302 376.921 208.874C376.855 208.795 376.79 208.717 376.725 208.638C382.418 203.852 389.564 196.234 393.39 190.669C393.461 190.547 393.531 190.424 393.6 190.301H393.64C393.668 190.259 393.697 190.217 393.725 190.175C398.99 188.949 404.476 188.301 410.115 188.301H414.115V169.912C395.195 160.924 382.115 141.64 382.115 119.301V81.301C382.115 78.8384 382.274 76.413 382.582 74.0344C386.524 72.7713 390.48 71.5787 394.513 70.5056C398.97 69.32 408.913 67.3918 412.804 66.4952L415.54 63.5164L416.602 65.4712C418.76 65.3053 430.681 63.5137 430.681 63.5137L432.011 60.2909C433.727 62.0541 434.95 62.9699 434.95 62.9699C437.506 62.7615 448.603 62.5124 451.235 62.5437C451.235 62.5437 458.575 62.8023 460.355 62.8724L462.022 62.2339L462.571 63.3109C464.025 63.9021 472.814 66.9019 474.549 67.4391L477.096 66.5334C478.215 69.2266 481.035 68.887 483.372 71.0143C485.875 73.2926 490.598 75.0383 493.946 76.9192Z" fill="#331808"/>
<path d="M595 5H331V285H595V5Z" fill="#20110E"/>
<path fill-rule="evenodd" clip-rule="evenodd" d="M393.679 189.462C400.755 179.755 393.149 152.787 387.128 142.801C403.965 135.138 437.214 136.554 486.874 147.048C482.079 155.9 480.123 163.804 481.006 170.757C476.469 176.333 472.72 182.127 469.76 188.142L434.889 196.747C412.853 199.4 399.116 196.972 393.679 189.462Z" fill="black" fill-opacity="0.24"/>
</g>
<path fill-rule="evenodd" clip-rule="evenodd" d="M384.04 159.094C383.981 158.893 383.835 158.667 383.635 158.429C383.771 158.65 383.907 158.871 384.04 159.094ZM361.41 109.375C362.266 115.541 363.736 121.465 365.866 127.378C367.928 133.099 370.286 138.836 373.679 144.068C376.84 148.943 380.603 153.492 383.635 158.429C382.838 157.481 381.163 156.33 380.521 155.651C379.464 154.535 378.475 153.385 377.537 152.194C375.614 149.75 373.9 147.194 372.244 144.61C368.991 139.537 366.553 134.034 364.44 128.531C360.29 117.723 356.127 104.617 359.774 93.2009C359.492 93.9351 360.233 95.6883 360.349 96.4974C360.553 97.9107 360.735 99.3336 360.827 100.757C361.012 103.64 361.011 106.506 361.41 109.375ZM373.855 154.041C372.497 152.31 369.974 150.944 368.413 149.279C366.998 147.77 365.902 146.078 364.907 144.34C362.652 140.399 361.17 136.375 360.69 131.969C360.799 132.492 361.608 133.396 361.863 133.825C362.477 134.859 363.084 135.894 363.651 136.949C364.748 138.99 365.664 141.1 366.773 143.136C368.811 146.875 371.403 150.495 373.855 154.041ZM378.532 172.499C379.647 174.461 380.572 176.465 381.157 178.601C381.466 179.728 381.714 180.87 381.927 182.014C381.996 182.383 382.009 183.71 382.185 184.284C379.97 179.993 378.28 175.449 375.642 171.342C373.038 167.288 369.695 163.561 366.196 160.061C362.501 156.366 358.786 152.879 356.804 148.214C355.079 144.154 354.413 139.996 354.814 135.658C354.816 137.569 356.571 140.28 357.177 142.127C358.006 144.654 358.666 147.232 359.914 149.634C362.04 153.723 365.873 156.877 369.079 160.322C372.632 164.138 376.025 168.084 378.532 172.499ZM364.229 163.179C365.287 164.197 366.216 165.283 367.035 166.454C367.933 167.739 368.591 169.09 369.18 170.504C369.687 171.721 369.911 173.986 370.707 175.002C368.129 171.856 365.474 168.885 363.696 165.312C363.089 164.09 362.148 162.289 361.453 160.817C361.684 161.41 363.706 162.677 364.229 163.179ZM353.903 169.528C356.741 173.778 360.451 177.609 362.877 182.056C365.707 187.243 366.952 192.863 367.203 198.596C367.322 201.307 367.315 204.061 366.95 206.764C366.754 208.212 366.44 209.65 366.081 211.076C365.945 211.617 365.241 213.002 365.104 213.847C364.814 203.306 366.558 192.764 361.077 182.943C358.481 178.292 354.491 174.327 351.398 169.925C348.617 165.966 345.9 162.084 343.685 157.851C345.041 159.567 347.485 160.916 349.001 162.62C350.9 164.754 352.349 167.2 353.903 169.528ZM365.104 213.847C365.071 214.051 365.07 214.224 365.117 214.347C365.112 214.18 365.108 214.013 365.104 213.847ZM355.56 191.494C355.561 191.99 356.376 193.012 356.599 193.529C357.121 194.738 357.546 196.008 357.757 197.29C358.175 199.818 357.627 202.43 356.69 204.85C354.791 209.757 351.816 214.103 348.077 218.15C349.412 216.402 349.944 213.561 350.883 211.612C351.848 209.611 352.883 207.641 353.734 205.601C355.653 200.996 355.484 196.29 355.56 191.494ZM346.917 210.201C347.318 209.653 347.11 207.018 347.322 206.329C347.714 205.056 348.392 203.827 349.171 202.694C348.755 203.393 349.369 205.16 349.166 206.067C348.834 207.556 347.996 208.999 346.917 210.201ZM404.608 31.7484C404.527 31.805 404.447 31.9082 404.368 32.0446C404.448 31.946 404.527 31.8466 404.608 31.7484ZM389.847 53.3317C391.267 52.0859 392.024 49.1411 393.003 47.5522C394.128 45.727 395.421 43.9731 396.648 42.1961C399.08 38.6719 401.374 35.2124 404.368 32.0055C403.746 32.9398 403.195 35.7737 402.854 36.519C401.962 38.4668 400.899 40.3335 399.633 42.1235C396.772 46.168 393.703 49.9267 389.847 53.3317ZM389.312 43.1218C390.062 41.7952 391.206 40.674 392.492 39.7083C391.919 40.2107 391.661 42.2832 391.267 42.9832C390.472 44.3953 389.314 45.6131 388.071 46.7546C388.735 46.1727 388.843 43.9517 389.312 43.1218ZM508.506 141.128C508.499 141.18 508.485 141.282 508.465 141.439C508.463 139.913 507.784 138.237 507.704 136.669C507.592 134.479 507.907 132.354 508.787 130.277C510.527 126.176 513.79 123.07 517.951 120.639C516.806 121.313 515.684 123.852 514.95 124.907C513.847 126.493 512.668 128.094 511.736 129.758C509.793 133.226 509.23 137.375 508.506 141.128ZM506.998 119.482C506.761 120.707 506.449 121.922 506.009 123.108C505.535 124.387 504.916 125.631 504.226 126.836C503.796 127.587 502.247 129.163 502.248 129.993C502.165 125.095 503.976 120.658 507.42 116.736C507.042 117.393 507.137 118.766 506.998 119.482ZM506.197 154.72C509.853 154.203 513.303 155.981 515.618 158.271C516.856 159.495 517.956 160.9 518.683 162.404C519.23 163.535 519.229 165.387 519.963 166.324C518.166 163.905 515.887 161.951 513.639 159.86C512.075 158.405 508.951 154.679 506.197 154.72ZM505.419 165.097C505.227 165.032 503.485 164.539 503.082 164.777C503.679 164.51 504.412 164.185 505.069 164.098C509.353 163.529 514.561 167.239 515.136 170.819C514.658 169.593 512.111 168.579 510.96 167.969C509.137 167.003 507.396 165.832 505.419 165.097ZM507.228 172.908C507.97 173.09 509.547 174.084 510.275 174.073C507.346 174.144 504.703 173.818 501.884 173.159C502.036 173.2 503.643 172.703 503.695 172.696C504.91 172.524 506.052 172.621 507.228 172.908ZM495.883 186.765C500.171 186.523 505.219 187.149 509.314 188.182C511.347 188.694 513.253 189.468 515.006 190.477C516.42 191.291 518.936 192.409 519.882 193.614C516.143 187.162 508.032 183.811 499.723 185.473C498.615 185.696 496.914 186.75 495.883 186.765ZM494.923 199.198C497.611 198.233 500.585 197.304 503.506 197.169C506.277 197.042 509.351 197.459 511.916 198.342C511.033 198.102 508.923 198.674 507.996 198.779C506.699 198.926 505.4 199.078 504.1 199.197C502.506 199.342 500.898 199.423 499.299 199.419C498.16 199.417 495.979 198.879 494.923 199.198ZM484.459 216.411C484.712 220.384 487.011 223.845 490.39 226.491C493.973 229.296 498.769 230.573 501.37 234.32C502.637 236.145 503.313 238.271 503.204 240.418C503.148 241.524 502.87 242.636 502.57 243.712C502.372 244.42 501.667 245.58 501.668 246.271C501.699 242.384 501.752 237.859 499.032 234.598C496.301 231.324 491.539 230.171 488.203 227.483C484.925 224.841 482.438 221.389 481.878 217.498C481.426 214.354 481.649 208.872 484.908 206.739C484.246 207.128 484.377 209.112 484.361 209.669C484.298 211.9 484.317 214.185 484.459 216.411ZM482.006 231.673C482.402 232.193 484.575 232.824 485.214 233.183C486.67 234 488.079 234.929 489.235 236.06C491.551 238.326 493.044 241.505 493.152 244.554C493.152 243.833 491.506 242.097 491.043 241.481C490.275 240.459 489.408 239.512 488.525 238.564C486.371 236.254 484.135 234 482.006 231.673ZM534.168 142.791C535.372 143.842 536.179 145.148 536.843 146.5C538.373 149.619 538.658 153.217 537.432 156.5C537.635 155.796 537.031 154.316 536.861 153.602C536.488 152.039 535.906 150.562 535.298 149.06C534.118 146.144 533.164 143.412 531.114 140.858C531.644 141.526 533.442 142.158 534.168 142.791ZM476.51 30.9833C476.51 31.3148 477.427 32.2759 477.633 32.6374C478.15 33.5393 478.557 34.4858 478.697 35.4925C478.855 36.6337 478.662 37.7506 478.316 38.8606C478.11 39.5203 477.132 40.795 477.132 41.3895C476.973 37.8912 476.199 34.5299 476.51 30.9833ZM484.147 37.8049C484.312 39.0478 483.906 40.4492 483.183 41.5468C483.315 41.2365 482.729 39.1643 482.71 38.785C482.651 37.6119 482.779 36.4057 482.856 35.2333C482.857 35.8739 484.039 36.9959 484.147 37.8049ZM423.377 39.3733C422.142 40.8858 420.738 42.3033 419.227 43.6165C418.204 44.5061 416.243 45.5058 415.463 46.5268C418.964 40.8148 423.009 35.8878 427.765 30.8951C427.049 31.8156 426.862 33.8121 426.337 34.8886C425.563 36.4759 424.528 37.9646 423.377 39.3733ZM429.275 41.8516C429.845 41.5156 430.379 39.8592 430.813 39.3014C431.545 38.3624 432.438 37.4555 433.391 36.6728C433.186 36.8928 432.789 38.7159 432.566 39.074C431.843 40.2345 430.566 41.181 429.275 41.8516Z" fill="#491D13"/>
</g>
</g>
<path d="M628.095 103.081C632.291 103.081 635.398 104.13 637.414 106.229C639.471 108.286 640.499 111.433 640.499 115.671V130.729C640.499 131.84 640.17 132.725 639.512 133.383C638.854 134 637.949 134.309 636.797 134.309C635.727 134.309 634.842 133.979 634.143 133.321C633.485 132.663 633.155 131.799 633.155 130.729V129.371C632.456 130.976 631.345 132.231 629.823 133.136C628.342 134.041 626.614 134.494 624.639 134.494C622.623 134.494 620.792 134.082 619.146 133.259C617.501 132.437 616.205 131.305 615.258 129.865C614.312 128.425 613.839 126.821 613.839 125.051C613.839 122.83 614.394 121.081 615.505 119.806C616.657 118.53 618.509 117.605 621.059 117.029C623.61 116.453 627.128 116.165 631.613 116.165H633.155V114.745C633.155 112.729 632.723 111.269 631.859 110.363C630.995 109.417 629.597 108.944 627.663 108.944C626.47 108.944 625.256 109.129 624.022 109.499C622.787 109.829 621.327 110.322 619.64 110.981C618.57 111.515 617.789 111.783 617.295 111.783C616.554 111.783 615.937 111.515 615.443 110.981C614.991 110.446 614.765 109.746 614.765 108.882C614.765 108.183 614.929 107.586 615.258 107.093C615.629 106.558 616.225 106.064 617.048 105.611C618.488 104.83 620.195 104.213 622.17 103.76C624.186 103.307 626.161 103.081 628.095 103.081ZM626.182 128.939C628.239 128.939 629.905 128.261 631.181 126.903C632.497 125.504 633.155 123.714 633.155 121.534V120.238H632.045C629.288 120.238 627.149 120.361 625.626 120.608C624.104 120.855 623.014 121.287 622.355 121.904C621.697 122.521 621.368 123.365 621.368 124.434C621.368 125.751 621.821 126.841 622.726 127.705C623.672 128.528 624.824 128.939 626.182 128.939Z" fill="#130F40"/>
<path d="M673.519 90.1829C674.671 90.1829 675.617 90.512 676.358 91.1703C677.098 91.8286 677.469 92.6926 677.469 93.7623V130.667C677.469 131.778 677.119 132.663 676.42 133.321C675.72 133.979 674.794 134.309 673.642 134.309C672.49 134.309 671.565 133.979 670.865 133.321C670.166 132.663 669.816 131.778 669.816 130.667V129.125C668.911 130.811 667.594 132.128 665.866 133.074C664.18 134.021 662.246 134.494 660.065 134.494C657.473 134.494 655.149 133.835 653.092 132.519C651.076 131.202 649.492 129.351 648.34 126.965C647.229 124.537 646.673 121.76 646.673 118.633C646.673 115.506 647.229 112.77 648.34 110.425C649.492 108.08 651.076 106.27 653.092 104.994C655.108 103.719 657.432 103.081 660.065 103.081C662.246 103.081 664.18 103.534 665.866 104.439C667.553 105.344 668.849 106.619 669.754 108.265V93.6389C669.754 92.6103 670.084 91.7875 670.742 91.1703C671.441 90.512 672.367 90.1829 673.519 90.1829ZM662.102 128.507C664.57 128.507 666.463 127.664 667.78 125.977C669.137 124.29 669.816 121.883 669.816 118.757C669.816 115.63 669.137 113.243 667.78 111.598C666.463 109.911 664.591 109.067 662.164 109.067C659.695 109.067 657.782 109.89 656.424 111.536C655.066 113.182 654.388 115.547 654.388 118.633C654.388 121.76 655.066 124.187 656.424 125.915C657.782 127.643 659.674 128.507 662.102 128.507Z" fill="#130F40"/>
<path d="M689.231 134.37C688.12 134.37 687.194 134.062 686.453 133.445C685.754 132.786 685.404 131.861 685.404 130.667V106.846C685.404 105.653 685.754 104.747 686.453 104.13C687.194 103.513 688.12 103.205 689.231 103.205C690.341 103.205 691.267 103.513 692.008 104.13C692.748 104.747 693.119 105.653 693.119 106.846V130.667C693.119 131.861 692.748 132.786 692.008 133.445C691.267 134.062 690.341 134.37 689.231 134.37ZM689.231 97.712C687.832 97.712 686.721 97.3417 685.898 96.6012C685.075 95.8195 684.664 94.8115 684.664 93.5772C684.664 92.3429 685.075 91.3555 685.898 90.6149C686.721 89.8743 687.832 89.504 689.231 89.504C690.588 89.504 691.679 89.8743 692.501 90.6149C693.365 91.3555 693.797 92.3429 693.797 93.5772C693.797 94.8115 693.386 95.8195 692.563 96.6012C691.74 97.3417 690.629 97.712 689.231 97.712Z" fill="#130F40"/>
<path d="M716.749 128.631C718.807 128.754 719.835 129.68 719.835 131.408C719.835 132.395 719.424 133.157 718.601 133.691C717.819 134.185 716.688 134.391 715.207 134.309L713.54 134.185C706.628 133.691 703.172 129.989 703.172 123.077V109.623H700.087C698.976 109.623 698.112 109.376 697.495 108.882C696.919 108.389 696.631 107.669 696.631 106.722C696.631 105.776 696.919 105.056 697.495 104.562C698.112 104.069 698.976 103.822 700.087 103.822H703.172V98.144C703.172 97.0332 703.522 96.1486 704.221 95.4903C704.921 94.832 705.867 94.5029 707.06 94.5029C708.212 94.5029 709.138 94.832 709.837 95.4903C710.537 96.1486 710.887 97.0332 710.887 98.144V103.822H716.132C717.243 103.822 718.087 104.069 718.663 104.562C719.28 105.056 719.588 105.776 719.588 106.722C719.588 107.669 719.28 108.389 718.663 108.882C718.087 109.376 717.243 109.623 716.132 109.623H710.887V123.632C710.887 126.677 712.285 128.302 715.083 128.507L716.749 128.631Z" fill="#130F40"/>
<path d="M727.681 134.37C726.571 134.37 725.645 134.062 724.904 133.445C724.205 132.786 723.855 131.861 723.855 130.667V106.846C723.855 105.653 724.205 104.747 724.904 104.13C725.645 103.513 726.571 103.205 727.681 103.205C728.792 103.205 729.718 103.513 730.459 104.13C731.199 104.747 731.569 105.653 731.569 106.846V130.667C731.569 131.861 731.199 132.786 730.459 133.445C729.718 134.062 728.792 134.37 727.681 134.37ZM727.681 97.712C726.283 97.712 725.172 97.3417 724.349 96.6012C723.526 95.8195 723.115 94.8115 723.115 93.5772C723.115 92.3429 723.526 91.3555 724.349 90.6149C725.172 89.8743 726.283 89.504 727.681 89.504C729.039 89.504 730.129 89.8743 730.952 90.6149C731.816 91.3555 732.248 92.3429 732.248 93.5772C732.248 94.8115 731.837 95.8195 731.014 96.6012C730.191 97.3417 729.08 97.712 727.681 97.712Z" fill="#130F40"/>
<path d="M650.867 162.081C654.159 162.081 656.669 163.069 658.397 165.043C660.166 166.977 661.05 170.125 661.05 174.486V189.667C661.05 190.861 660.68 191.786 659.939 192.445C659.24 193.062 658.314 193.37 657.162 193.37C656.051 193.37 655.126 193.062 654.385 192.445C653.686 191.786 653.336 190.861 653.336 189.667V174.486C653.336 172.223 652.925 170.618 652.102 169.672C651.32 168.685 650.106 168.191 648.461 168.191C646.445 168.191 644.84 168.89 643.647 170.289C642.454 171.647 641.857 173.519 641.857 175.905V189.667C641.857 190.861 641.487 191.786 640.746 192.445C640.047 193.062 639.142 193.37 638.031 193.37C636.92 193.37 635.994 193.062 635.254 192.445C634.513 191.786 634.143 190.861 634.143 189.667V174.486C634.143 172.223 633.731 170.618 632.909 169.672C632.127 168.685 630.913 168.191 629.267 168.191C627.251 168.191 625.647 168.89 624.454 170.289C623.302 171.647 622.726 173.519 622.726 175.905V189.667C622.726 190.861 622.355 191.786 621.615 192.445C620.874 193.062 619.949 193.37 618.838 193.37C617.727 193.37 616.801 193.062 616.061 192.445C615.361 191.786 615.011 190.861 615.011 189.667V165.784C615.011 164.632 615.382 163.747 616.122 163.13C616.863 162.513 617.789 162.205 618.899 162.205C619.969 162.205 620.833 162.513 621.491 163.13C622.191 163.706 622.541 164.55 622.541 165.661V167.142C623.487 165.496 624.742 164.241 626.305 163.377C627.91 162.513 629.741 162.081 631.798 162.081C636.323 162.081 639.347 163.974 640.87 167.759C641.775 166.031 643.112 164.653 644.881 163.624C646.65 162.595 648.646 162.081 650.867 162.081Z" fill="#130F40"/>
<path d="M682.653 193.494C679.567 193.494 676.852 192.856 674.507 191.581C672.203 190.305 670.413 188.474 669.138 186.088C667.862 183.702 667.225 180.925 667.225 177.757C667.225 174.589 667.862 171.832 669.138 169.487C670.413 167.101 672.203 165.27 674.507 163.994C676.852 162.719 679.567 162.081 682.653 162.081C685.739 162.081 688.434 162.719 690.738 163.994C693.083 165.27 694.873 167.101 696.107 169.487C697.382 171.832 698.02 174.589 698.02 177.757C698.02 180.925 697.382 183.702 696.107 186.088C694.873 188.474 693.083 190.305 690.738 191.581C688.434 192.856 685.739 193.494 682.653 193.494ZM682.591 187.507C685.101 187.507 687.014 186.685 688.331 185.039C689.647 183.393 690.306 180.966 690.306 177.757C690.306 174.589 689.647 172.182 688.331 170.536C687.014 168.849 685.122 168.006 682.653 168.006C680.185 168.006 678.271 168.849 676.914 170.536C675.597 172.182 674.939 174.589 674.939 177.757C674.939 180.966 675.597 183.393 676.914 185.039C678.23 186.685 680.123 187.507 682.591 187.507Z" fill="#130F40"/>
<path d="M722.039 162.081C729.116 162.081 732.654 166.216 732.654 174.486V189.667C732.654 190.819 732.304 191.725 731.605 192.383C730.946 193.041 730.021 193.37 728.828 193.37C727.634 193.37 726.688 193.041 725.989 192.383C725.289 191.725 724.94 190.819 724.94 189.667V174.486C724.94 172.305 724.487 170.721 723.582 169.734C722.718 168.705 721.34 168.191 719.447 168.191C717.225 168.191 715.436 168.89 714.078 170.289C712.761 171.688 712.103 173.56 712.103 175.905V189.667C712.103 190.819 711.753 191.725 711.054 192.383C710.354 193.041 709.408 193.37 708.215 193.37C707.022 193.37 706.076 193.041 705.376 192.383C704.718 191.725 704.389 190.819 704.389 189.667V152.762C704.389 151.693 704.738 150.829 705.438 150.17C706.178 149.512 707.125 149.183 708.277 149.183C709.429 149.183 710.354 149.491 711.054 150.109C711.753 150.726 712.103 151.569 712.103 152.639V167.018C713.132 165.414 714.489 164.2 716.176 163.377C717.904 162.513 719.858 162.081 722.039 162.081Z" fill="#130F40"/>
<path d="M753.573 162.081C757.769 162.081 760.875 163.13 762.891 165.229C764.949 167.286 765.977 170.433 765.977 174.671V189.729C765.977 190.84 765.648 191.725 764.99 192.383C764.331 193 763.426 193.309 762.274 193.309C761.205 193.309 760.32 192.979 759.621 192.321C758.962 191.663 758.633 190.799 758.633 189.729V188.371C757.934 189.976 756.823 191.231 755.301 192.136C753.819 193.041 752.091 193.494 750.117 193.494C748.101 193.494 746.27 193.082 744.624 192.259C742.978 191.437 741.682 190.305 740.736 188.865C739.79 187.425 739.317 185.821 739.317 184.051C739.317 181.83 739.872 180.081 740.983 178.806C742.135 177.53 743.986 176.605 746.537 176.029C749.088 175.453 752.606 175.165 757.09 175.165H758.633V173.745C758.633 171.729 758.201 170.269 757.337 169.363C756.473 168.417 755.074 167.944 753.141 167.944C751.947 167.944 750.734 168.129 749.499 168.499C748.265 168.829 746.805 169.322 745.118 169.981C744.048 170.515 743.266 170.783 742.773 170.783C742.032 170.783 741.415 170.515 740.921 169.981C740.469 169.446 740.242 168.746 740.242 167.882C740.242 167.183 740.407 166.586 740.736 166.093C741.106 165.558 741.703 165.064 742.526 164.611C743.966 163.83 745.673 163.213 747.648 162.76C749.664 162.307 751.639 162.081 753.573 162.081ZM751.659 187.939C753.717 187.939 755.383 187.261 756.658 185.903C757.975 184.504 758.633 182.714 758.633 180.534V179.238H757.522C754.766 179.238 752.626 179.361 751.104 179.608C749.582 179.855 748.491 180.287 747.833 180.904C747.175 181.521 746.846 182.365 746.846 183.434C746.846 184.751 747.298 185.841 748.203 186.705C749.15 187.528 750.302 187.939 751.659 187.939Z" fill="#130F40"/>
<path d="M791.344 162.081C794.965 162.081 797.66 163.11 799.429 165.167C801.198 167.224 802.082 170.33 802.082 174.486V189.667C802.082 190.819 801.733 191.725 801.033 192.383C800.375 193.041 799.449 193.37 798.256 193.37C797.063 193.37 796.117 193.041 795.417 192.383C794.718 191.725 794.368 190.819 794.368 189.667V174.918C794.368 172.573 793.916 170.865 793.01 169.795C792.146 168.726 790.768 168.191 788.876 168.191C786.654 168.191 784.864 168.89 783.506 170.289C782.19 171.688 781.532 173.56 781.532 175.905V189.667C781.532 190.819 781.182 191.725 780.482 192.383C779.783 193.041 778.837 193.37 777.644 193.37C776.45 193.37 775.504 193.041 774.805 192.383C774.146 191.725 773.817 190.819 773.817 189.667V165.784C773.817 164.714 774.167 163.85 774.866 163.192C775.566 162.534 776.512 162.205 777.705 162.205C778.775 162.205 779.639 162.534 780.297 163.192C780.997 163.809 781.346 164.632 781.346 165.661V167.327C782.375 165.64 783.753 164.344 785.481 163.439C787.209 162.534 789.164 162.081 791.344 162.081Z" fill="#130F40"/>
<path d="M825.593 187.631C827.65 187.754 828.679 188.68 828.679 190.408C828.679 191.395 828.267 192.157 827.445 192.691C826.663 193.185 825.531 193.391 824.05 193.309L822.384 193.185C815.472 192.691 812.016 188.989 812.016 182.077V168.623H808.93C807.819 168.623 806.955 168.376 806.338 167.882C805.762 167.389 805.474 166.669 805.474 165.722C805.474 164.776 805.762 164.056 806.338 163.562C806.955 163.069 807.819 162.822 808.93 162.822H812.016V157.144C812.016 156.033 812.366 155.149 813.065 154.49C813.765 153.832 814.711 153.503 815.904 153.503C817.056 153.503 817.982 153.832 818.681 154.49C819.381 155.149 819.73 156.033 819.73 157.144V162.822H824.976C826.087 162.822 826.93 163.069 827.506 163.562C828.123 164.056 828.432 164.776 828.432 165.722C828.432 166.669 828.123 167.389 827.506 167.882C826.93 168.376 826.087 168.623 824.976 168.623H819.73V182.632C819.73 185.677 821.129 187.302 823.927 187.507L825.593 187.631Z" fill="#130F40"/>
<path d="M854.226 164.426C854.555 163.686 854.987 163.151 855.522 162.822C856.098 162.451 856.715 162.266 857.373 162.266C858.319 162.266 859.163 162.595 859.903 163.254C860.685 163.871 861.076 164.653 861.076 165.599C861.076 166.051 860.952 166.525 860.706 167.018L843.858 202.319C843.158 203.718 842.068 204.417 840.587 204.417C839.641 204.417 838.797 204.109 838.057 203.491C837.357 202.915 837.007 202.175 837.007 201.27C837.007 200.817 837.131 200.303 837.378 199.727L841.574 190.902L830.095 167.018C829.89 166.607 829.787 166.134 829.787 165.599C829.787 164.653 830.178 163.85 830.959 163.192C831.782 162.534 832.708 162.205 833.737 162.205C834.436 162.205 835.074 162.39 835.65 162.76C836.226 163.089 836.678 163.624 837.007 164.365L845.647 183.434L854.226 164.426Z" fill="#130F40"/>
<path d="M866.956 193.37C865.64 193.37 864.549 192.938 863.685 192.074C862.821 191.169 862.389 190.058 862.389 188.742C862.389 187.425 862.821 186.335 863.685 185.471C864.549 184.566 865.64 184.113 866.956 184.113C868.273 184.113 869.363 184.566 870.227 185.471C871.091 186.335 871.523 187.425 871.523 188.742C871.523 190.058 871.091 191.169 870.227 192.074C869.363 192.938 868.273 193.37 866.956 193.37Z" fill="#130F40"/>
</g>
<defs>
<clipPath id="clip0">
<rect width="1200" height="276" fill="white"/>
</clipPath>
</defs>
</svg>
